<?xml version="1.0" encoding="UTF-8"?>
<svg id="Capa_2" data-name="Capa 2" xmlns="http://www.w3.org/2000/svg" xmlns:xlink="http://www.w3.org/1999/xlink" viewBox="0 0 193.14 71.66">
  <defs>
    <clipPath id="clippath">
      <path d="M121.94,51.39h-2.62c-4.31,0-6.53-3.48-4.98-7.8l5.7-15.65c1.74-4.45,5.89-7.49,10.65-7.82h10.43l-1.81,5.22h-7.91c-1.61.09-3.02,1.1-3.61,2.6l-5.7,15.65c-.44.9-.07,1.98.83,2.42.26.13.55.19.83.18h7.83l-1.91,5.22h-7.74v-.02Z" style="fill: #ffffff;"/>
    </clipPath>
    <clipPath id="clippath-1">
      <path d="M174.8,27.94c.59-1.51,2-2.53,3.61-2.62h12.92l1.81-5.22h-15.51c-4.77.33-8.92,3.38-10.65,7.83l-.92,2.6c-1.57,4.31.65,7.82,4.98,7.8.17.02.34.02.51,0h4.69c1-.03,1.83.76,1.85,1.76,0,.3-.06.6-.19.86l-1.01,2.62c-.59,1.5-2,2.52-3.61,2.6h-12.94l-1.81,5.22h15.65c4.76-.33,8.91-3.37,10.65-7.82l.96-2.6c1.55-4.31-.67-7.82-4.98-7.82h-5.31c-1,.02-1.82-.77-1.84-1.76,0-.29.06-.58.18-.83l.96-2.62Z" style="fill: #ffffff;"/>
    </clipPath>
    <clipPath id="clippath-2">
      <path d="M101.82,27.94c.59-1.51,2-2.53,3.61-2.62h13.01l1.91-5.22h-15.67c-4.76.34-8.91,3.39-10.65,7.83l-.96,2.6c-1.55,4.31.67,7.82,5,7.8.17.02.35.02.52,0h4.68c1-.03,1.83.76,1.85,1.76,0,.3-.06.6-.19.86l-.94,2.6c-.59,1.5-2,2.52-3.61,2.6h-13.03l-1.91,5.22h15.63c4.77-.33,8.92-3.37,10.67-7.82l.94-2.6c1.57-4.31-.65-7.82-4.98-7.8h-5.2c-1,.03-1.83-.76-1.85-1.76,0-.3.06-.6.19-.86l.97-2.6Z" style="fill: #ffffff;"/>
    </clipPath>
    <clipPath id="clippath-3">
      <path d="M160.16,20.16h-16.43l-1.81,5.22h12.94c1-.03,1.83.76,1.85,1.76,0,.3-.06.6-.19.86l-5.69,15.63c-.59,1.5-2,2.52-3.61,2.6h-5.16l6.66-18.36h-7.83l-8.56,23.47h15.67c4.76-.33,8.91-3.37,10.65-7.82l5.6-15.58c1.57-4.03-.23-7.4-4.1-7.78Z" style="fill: #ffffff;"/>
    </clipPath>
  </defs>
  <g id="Capa_1-2" data-name="Capa 1">
    <g>
      <path d="M35.82,71.66h-1.07l7.33-20.13h10.07c1.9-.09,3.57-1.26,4.31-3.01l7.94-21.82c1.1-2.25.17-4.96-2.08-6.06-.77-.38-1.62-.53-2.47-.44h-13.97l-11.73,32.15h0l-6.66,18.34C8.25,66.07-3.62,46.72,1,27.47,4.02,14.84,13.64,4.84,26.15,1.32l-6.86,18.86h0l-11.41,31.34h7.6l9.78-26.63h5.72l-9.8,26.63h7.69l9.03-24.84c1.1-2.25.17-4.96-2.08-6.06-.77-.38-1.62-.53-2.47-.44h-6.46L34.29,0h1.61c19.79,0,35.83,16.05,35.83,35.84,0,19.79-16.04,35.82-35.83,35.83h-.07ZM57.48,24.87h-5.69l-7.98,21.93h5.7l7.96-21.93Z" style="fill: #024ad8;"/>
      <g>
        <path d="M121.94,51.39h-2.62c-4.31,0-6.53-3.48-4.98-7.8l5.7-15.65c1.74-4.45,5.89-7.49,10.65-7.82h10.43l-1.81,5.22h-7.91c-1.61.09-3.02,1.1-3.61,2.6l-5.7,15.65c-.44.9-.07,1.98.83,2.42.26.13.55.19.83.18h7.83l-1.91,5.22h-7.74v-.02Z" style="fill: #ffffff;"/>
        <g style="clip-path: url(#clippath);">
          <polygon points="94.67 18.76 197.36 18.76 185.12 52.38 82.41 52.38 94.67 18.76" style="fill: #ffffff;"/>
          <polygon points="94.74 18.88 197.18 18.88 185.03 52.26 82.59 52.26 94.74 18.88" style="fill: #ffffff; stroke: #797574; stroke-width: .43px;"/>
        </g>
      </g>
      <g>
        <path d="M174.8,27.94c.59-1.51,2-2.53,3.61-2.62h12.92l1.81-5.22h-15.51c-4.77.33-8.92,3.38-10.65,7.83l-.92,2.6c-1.57,4.31.65,7.82,4.98,7.8.17.02.34.02.51,0h4.69c1-.03,1.83.76,1.85,1.76,0,.3-.06.6-.19.86l-1.01,2.62c-.59,1.5-2,2.52-3.61,2.6h-12.94l-1.81,5.22h15.65c4.76-.33,8.91-3.37,10.65-7.82l.96-2.6c1.55-4.31-.67-7.82-4.98-7.82h-5.31c-1,.02-1.82-.77-1.84-1.76,0-.29.06-.58.18-.83l.96-2.62Z" style="fill: #ffffff;"/>
        <g style="clip-path: url(#clippath-1);">
          <polygon points="94.67 18.76 197.36 18.76 185.12 52.38 82.41 52.38 94.67 18.76" style="fill: #ffffff;"/>
          <polygon points="94.74 18.88 197.18 18.88 185.03 52.26 82.59 52.26 94.74 18.88" style="fill: #ffffff; stroke: #797574; stroke-width: .43px;"/>
        </g>
      </g>
      <g>
        <path d="M101.82,27.94c.59-1.51,2-2.53,3.61-2.62h13.01l1.91-5.22h-15.67c-4.76.34-8.91,3.39-10.65,7.83l-.96,2.6c-1.55,4.31.67,7.82,5,7.8.17.02.35.02.52,0h4.68c1-.03,1.83.76,1.85,1.76,0,.3-.06.6-.19.86l-.94,2.6c-.59,1.5-2,2.52-3.61,2.6h-13.03l-1.91,5.22h15.63c4.77-.33,8.92-3.37,10.67-7.82l.94-2.6c1.57-4.31-.65-7.82-4.98-7.8h-5.2c-1,.03-1.83-.76-1.85-1.76,0-.3.06-.6.19-.86l.97-2.6Z" style="fill: #6f6f6e;"/>
        <g style="clip-path: url(#clippath-2);">
          <polygon points="94.67 18.76 197.36 18.76 185.12 52.38 82.41 52.38 94.67 18.76" style="fill: #ffffff;"/>
          <polygon points="94.74 18.88 197.18 18.88 185.03 52.26 82.59 52.26 94.74 18.88" style="fill: #ffffff; stroke: #797574; stroke-width: .43px;"/>
        </g>
      </g>
      <g>
        <path d="M160.16,20.16h-16.43l-1.81,5.22h12.94c1-.03,1.83.76,1.85,1.76,0,.3-.06.6-.19.86l-5.69,15.63c-.59,1.5-2,2.52-3.61,2.6h-5.16l6.66-18.36h-7.83l-8.56,23.47h15.67c4.76-.33,8.91-3.37,10.65-7.82l5.6-15.58c1.57-4.03-.23-7.4-4.1-7.78Z" style="fill: #6f6f6e;"/>
        <g style="clip-path: url(#clippath-3);">
          <polygon points="94.67 18.76 197.36 18.76 185.12 52.38 82.41 52.38 94.67 18.76" style="fill: #ffffff;"/>
          <polygon points="94.74 18.88 197.18 18.88 185.03 52.26 82.59 52.26 94.74 18.88" style="fill: #ffffff; stroke: #797574; stroke-width: .43px;"/>
        </g>
      </g>
    </g>
  </g>
</svg>